<?xml version="1.0" standalone="no"?>
<!DOCTYPE svg PUBLIC "-//W3C//DTD SVG 20010904//EN"
 "http://www.w3.org/TR/2001/REC-SVG-20010904/DTD/svg10.dtd">
<svg version="1.0" xmlns="http://www.w3.org/2000/svg"
 width="500.000000pt" height="500.000000pt" viewBox="0 0 500.000000 500.000000"
 preserveAspectRatio="xMidYMid meet">
<metadata>
Created by potrace 1.11, written by Peter Selinger 2001-2013
</metadata>
<g transform="translate(0.000000,500.000000) scale(0.100000,-0.100000)"
fill="#000000" stroke="none">
<path d="M0 2500 l0 -2500 2500 0 2500 0 0 2500 0 2500 -2500 0 -2500 0 0
-2500z m2768 1869 c436 -47 788 -219 1007 -491 222 -277 354 -621 394 -1032
52 -530 -93 -1132 -359 -1487 -64 -86 -207 -222 -301 -286 -555 -381 -1451
-370 -2001 24 -343 245 -541 627 -602 1163 -27 235 -16 545 28 773 138 717
531 1157 1161 1303 174 40 474 55 673 33z"/>
<path d="M2394 3839 c-85 -14 -205 -56 -274 -96 -78 -46 -202 -166 -255 -248
-76 -116 -141 -300 -170 -480 -64 -393 -32 -857 79 -1139 146 -372 379 -536
761 -536 317 0 520 110 670 361 127 214 187 460 201 826 29 752 -231 1226
-720 1312 -69 13 -218 12 -292 0z"/>
</g>
</svg>
